<?xml version="1.0" encoding="UTF-8" standalone="no"?> <svg id="Layer_1" data-name="Layer 1" xmlns="http://www.w3.org/2000/svg" viewBox="0 0 512 512"><defs><style>.cls-1{fill:#141f38;}</style></defs><title>document-outline</title><path class="cls-1" d="M307.34,0H115.2a64,64,0,0,0-64,64V448a64,64,0,0,0,64,64H396.8a64,64,0,0,0,64-64V153.6ZM411.49,140.8H358.4A38.44,38.44,0,0,1,320,102.4V49.08ZM435.2,448a38.44,38.44,0,0,1-38.4,38.4H115.2A38.44,38.44,0,0,1,76.8,448V64a38.44,38.44,0,0,1,38.4-38.4H294.4v76.8a64,64,0,0,0,64,64h76.8ZM153.6,256a12.8,12.8,0,0,1,12.8-12.8H268.8a12.8,12.8,0,0,1,0,25.6H166.4A12.8,12.8,0,0,1,153.6,256Zm204.8,51.2A12.8,12.8,0,0,1,345.6,320H166.4a12.8,12.8,0,0,1,0-25.6H345.6A12.8,12.8,0,0,1,358.4,307.2ZM358,358.4a12.8,12.8,0,0,1-12.8,12.8H166.4a12.8,12.8,0,0,1,0-25.6H345.22A12.8,12.8,0,0,1,358,358.4Z"/></svg>